<svg width="37" height="35" viewBox="0 0 37 35" fill="none" xmlns="http://www.w3.org/2000/svg">
<circle cx="18.5" cy="17.5" r="17.5" fill="#E7DED0"/>
<mask id="path-2-outside-1_28_174" maskUnits="userSpaceOnUse" x="9" y="8" width="20" height="20" fill="black">
<rect fill="white" x="9" y="8" width="20" height="20"/>
<path d="M18.744 26.288C13.824 26.288 10.08 22.592 10.08 17.72C10.08 12.848 13.824 9.152 18.744 9.152C22.848 9.152 26.136 11.744 27.096 15.416H25.176C24.216 13.16 21.792 11.6 18.744 11.6C14.856 11.6 11.928 14.24 11.928 17.72C11.928 21.2 14.856 23.84 18.744 23.84C21.792 23.84 24.216 22.28 25.176 20.024H27.096C26.136 23.696 22.848 26.288 18.744 26.288Z"/>
</mask>
<path d="M18.744 26.288C13.824 26.288 10.08 22.592 10.08 17.72C10.08 12.848 13.824 9.152 18.744 9.152C22.848 9.152 26.136 11.744 27.096 15.416H25.176C24.216 13.16 21.792 11.6 18.744 11.6C14.856 11.6 11.928 14.24 11.928 17.72C11.928 21.2 14.856 23.84 18.744 23.84C21.792 23.84 24.216 22.28 25.176 20.024H27.096C26.136 23.696 22.848 26.288 18.744 26.288Z" fill="#402D1F"/>
<path d="M27.096 15.416V16.416H28.391L28.0635 15.1631L27.096 15.416ZM25.176 15.416L24.2558 15.8076L24.5148 16.416H25.176V15.416ZM25.176 20.024V19.024H24.5148L24.2558 19.6324L25.176 20.024ZM27.096 20.024L28.0635 20.2769L28.391 19.024H27.096V20.024ZM18.744 26.288V25.288C14.3652 25.288 11.08 22.0287 11.08 17.72H10.08H9.08C9.08 23.1553 13.2828 27.288 18.744 27.288V26.288ZM10.08 17.72H11.08C11.08 13.4113 14.3652 10.152 18.744 10.152V9.152V8.152C13.2828 8.152 9.08 12.2847 9.08 17.72H10.08ZM18.744 9.152V10.152C22.4052 10.152 25.2866 12.4486 26.1285 15.6689L27.096 15.416L28.0635 15.1631C26.9854 11.0394 23.2908 8.152 18.744 8.152V9.152ZM27.096 15.416V14.416H25.176V15.416V16.416H27.096V15.416ZM25.176 15.416L26.0962 15.0244C24.9557 12.3443 22.1294 10.6 18.744 10.6V11.6V12.6C21.4546 12.6 23.4763 13.9757 24.2558 15.8076L25.176 15.416ZM18.744 11.6V10.6C14.4065 10.6 10.928 13.5902 10.928 17.72H11.928H12.928C12.928 14.8898 15.3055 12.6 18.744 12.6V11.6ZM11.928 17.72H10.928C10.928 21.8498 14.4065 24.84 18.744 24.84V23.84V22.84C15.3055 22.84 12.928 20.5502 12.928 17.72H11.928ZM18.744 23.84V24.84C22.1294 24.84 24.9557 23.0957 26.0962 20.4156L25.176 20.024L24.2558 19.6324C23.4763 21.4643 21.4546 22.84 18.744 22.84V23.84ZM25.176 20.024V21.024H27.096V20.024V19.024H25.176V20.024ZM27.096 20.024L26.1285 19.7711C25.2866 22.9914 22.4052 25.288 18.744 25.288V26.288V27.288C23.2908 27.288 26.9854 24.4006 28.0635 20.2769L27.096 20.024Z" fill="#402D1F" mask="url(#path-2-outside-1_28_174)"/>
</svg>
