<?xml version="1.0" encoding="UTF-8"?><svg id="Layer_1" xmlns="http://www.w3.org/2000/svg" width="2000" height="2000" viewBox="0 0 2000 2000"><defs><style>.cls-1{fill:#e7ded0;}.cls-2{fill:#402d1f;}</style></defs><circle class="cls-1" cx="1000" cy="1000" r="1000"/><path class="cls-2" d="M1415.054,1241.2c-82.944,124.416-219.024,204.769-379.729,204.769-252.721,0-454.897-206.064-454.897-457.49,0-252.721,202.177-458.786,454.897-458.786,160.705,0,298.081,80.353,381.025,204.769,9.072-3.888-37.584,25.92-84.24,58.32l-95.904,67.392c-41.472-67.392-116.641-112.752-200.881-112.752-132.192,0-235.873,107.568-235.873,241.057s103.681,239.761,235.873,239.761c86.832,0,159.409-44.064,202.177-111.457l177.553,124.417Z"/></svg>